<svg width="20" height="21" viewBox="0 0 20 21" fill="none" xmlns="http://www.w3.org/2000/svg">
<g clipPath="url(#clip0_1880_429)">
<path opacity="0.75" d="M11.5238 10.1599L12.0984 8.32684L9.01423 9.60709L11.5238 10.1599ZM18.2159 6.69743C15.8664 4.32606 10.1708 4.76978 7.93039 5.32262C5.31173 5.99184 4.61342 7.98495 4.68616 11.2147C4.71525 13.0696 5.52268 14.7135 7.0866 15.2736C10.2726 16.3793 13.0077 16.2266 15.8809 13.4769C14.4116 11.8912 13.1895 11.3383 11.1819 11.4838C9.23245 11.5784 8.12679 11.2729 6.74472 9.75984C8.4323 8.13771 9.46522 7.3521 11.502 7.14115C13.7787 6.90838 15.8082 7.86857 16.6884 8.76329C17.5103 9.60709 17.925 11.5347 17.7286 13.8697C17.5758 15.761 16.9721 16.874 15.5827 17.274C13.7933 17.8269 11.1964 18.096 8.796 18.0014C5.96639 17.8851 4.48248 17.3104 4.06786 16.874C3.19498 15.8992 2.55486 13.8334 2.40938 11.462C2.26389 9.09062 2.63487 6.85019 3.36955 5.62813C4.09696 4.40608 6.78836 3.54046 10.7527 3.29313C14.0624 3.10401 17.1321 3.35133 17.1685 3.35133L16.9648 0.710815C16.9648 0.710815 9.88711 1.53279 8.80328 1.62736C6.17734 1.88195 2.64215 2.44933 1.45647 4.44245C-0.660279 7.9995 -0.121998 15.5719 2.43847 18.4088C4.72253 20.9547 12.6658 20.5328 16.2228 19.4635C17.8231 18.9835 19.6344 17.6668 19.9471 14.0661C20.1508 11.6948 19.8235 8.34139 18.2159 6.69743ZM11.1019 13.0478L13.6114 13.6006L10.5272 14.8808L11.1019 13.0478Z" fill="black"/>
<path d="M11.3789 9.94901L11.9536 8.11594L8.86936 9.39618L11.3789 9.94901ZM18.071 6.48655C15.7215 4.11521 10.0259 4.55165 7.78552 5.11176C5.16686 5.78097 4.46855 7.77406 4.54129 11.0037C4.57039 12.8586 5.37781 14.5026 6.94173 15.0627C10.1278 16.1683 12.8628 16.0156 15.7361 13.266C14.2667 11.6802 13.0447 11.1274 11.037 11.2729C9.08758 11.3674 7.98192 11.0619 6.59985 9.54893C8.28743 7.92682 9.32035 7.14122 11.3571 6.93027C13.6339 6.6975 15.6633 7.65768 16.5435 8.55239C17.3655 9.39618 17.7801 11.3238 17.5837 13.6588C17.4309 15.55 16.8272 16.663 15.4378 17.063C13.6484 17.6159 11.0443 17.885 8.65114 17.7904C5.82153 17.6741 4.33762 17.0994 3.923 16.663C3.05011 15.6882 2.40999 13.6224 2.26451 11.2511C2.11903 8.87972 2.49 6.63931 3.22469 5.41727C3.95209 4.19522 6.6435 3.32961 10.6079 3.08229C13.9176 2.89317 16.9872 3.14048 17.0236 3.14048L16.8199 0.5C16.8199 0.5 9.74225 1.32197 8.65841 1.41653C6.03247 1.66385 2.49001 2.2385 1.31161 4.23159C-0.805146 7.78861 -0.266865 15.3682 2.29361 18.1978C4.57766 20.7437 12.5209 20.3218 16.078 19.2525C17.6782 18.7724 19.4895 17.4558 19.8023 13.8552C20.0059 11.4838 19.6786 8.13049 18.071 6.48655ZM10.957 12.8368L13.4666 13.3896L10.3824 14.6699L10.957 12.8368Z" fill="#016B6B"/>
</g>
<defs>
<clipPath id="clip0_1880_429">
<rect width="20" height="19.8" fill="white" transform="translate(0 0.5)"/>
</clipPath>
</defs>
</svg>
